<?xml version="1.0" encoding="utf-8"?>
<!-- Generator: Adobe Illustrator 21.1.0, SVG Export Plug-In . SVG Version: 6.00 Build 0)  -->
<svg version="1.1" id="Слой_1" xmlns="http://www.w3.org/2000/svg" xmlns:xlink="http://www.w3.org/1999/xlink" x="0px" y="0px"
	 viewBox="0 0 58 14" style="enable-background:new 0 0 58 14;" xml:space="preserve">
<style type="text/css">
	.st0{enable-background:new    ;}
	.st1{fill:#60606E;}
</style>
<g class="st0">
	<path class="st1" d="M11.7,4.8c0.8,0.7,1.2,1.8,1.2,3.2v5.5h-2.6v-1.2c-0.5,0.9-1.5,1.3-3,1.3c-0.7,0-1.4-0.1-1.9-0.4
		c-0.5-0.3-1-0.6-1.3-1c-0.3-0.4-0.4-0.9-0.4-1.5c0-0.9,0.3-1.6,1-2.1c0.7-0.5,1.7-0.8,3.1-0.8h2.2c0-0.6-0.2-1.1-0.6-1.4
		C9.2,6.1,8.6,5.9,7.9,5.9c-0.5,0-1,0.1-1.5,0.2C5.8,6.3,5.4,6.6,5.1,6.8l-1-2C4.6,4.5,5.2,4.2,6,4c0.7-0.2,1.5-0.3,2.3-0.3
		C9.7,3.7,10.9,4.1,11.7,4.8z M9.3,11.5c0.4-0.2,0.6-0.5,0.8-1v-1H8.2c-1.2,0-1.7,0.4-1.7,1.1c0,0.4,0.1,0.6,0.4,0.9
		c0.3,0.2,0.7,0.3,1.2,0.3C8.5,11.8,8.9,11.7,9.3,11.5z"/>
	<path class="st1" d="M19.6,9.7l-1.4,1.3v2.5h-2.8V0.2h2.8v7.6l4.1-3.9h3.3l-4,4.1l4.4,5.6h-3.4L19.6,9.7z"/>
	<path class="st1" d="M34.5,4.8c0.8,0.7,1.2,1.8,1.2,3.2v5.5h-2.6v-1.2c-0.5,0.9-1.5,1.3-3,1.3c-0.7,0-1.4-0.1-1.9-0.4
		c-0.5-0.3-1-0.6-1.3-1c-0.3-0.4-0.4-0.9-0.4-1.5c0-0.9,0.3-1.6,1-2.1c0.7-0.5,1.7-0.8,3.1-0.8h2.2c0-0.6-0.2-1.1-0.6-1.4
		s-0.9-0.5-1.7-0.5c-0.5,0-1,0.1-1.5,0.2c-0.5,0.2-0.9,0.4-1.3,0.7l-1-2C27.4,4.5,28,4.2,28.8,4c0.7-0.2,1.5-0.3,2.3-0.3
		C32.5,3.7,33.7,4.1,34.5,4.8z M32.1,11.5c0.4-0.2,0.6-0.5,0.8-1v-1H31c-1.2,0-1.7,0.4-1.7,1.1c0,0.4,0.1,0.6,0.4,0.9
		c0.3,0.2,0.7,0.3,1.2,0.3C31.3,11.8,31.7,11.7,32.1,11.5z"/>
	<path class="st1" d="M48.2,0.2v13.4h-2.7v-1.1c-0.7,0.8-1.7,1.3-3,1.3c-0.9,0-1.7-0.2-2.5-0.6c-0.7-0.4-1.3-1-1.7-1.7
		s-0.6-1.6-0.6-2.6c0-1,0.2-1.9,0.6-2.6s1-1.3,1.7-1.7c0.7-0.4,1.6-0.6,2.5-0.6c1.2,0,2.2,0.4,2.9,1.2V0.2H48.2z M44.8,10.6
		c0.5-0.5,0.7-1.1,0.7-2c0-0.8-0.2-1.5-0.7-2S43.7,6,43,6c-0.7,0-1.3,0.2-1.8,0.7s-0.7,1.1-0.7,2c0,0.8,0.2,1.5,0.7,2
		c0.5,0.5,1.1,0.7,1.8,0.7C43.7,11.4,44.3,11.1,44.8,10.6z"/>
	<path class="st1" d="M50.6,13.2c-0.3-0.3-0.5-0.8-0.5-1.3c0-0.5,0.2-0.9,0.5-1.3c0.3-0.3,0.7-0.5,1.2-0.5s0.9,0.2,1.2,0.5
		c0.3,0.3,0.5,0.7,0.5,1.3c0,0.5-0.2,0.9-0.5,1.3c-0.3,0.3-0.8,0.5-1.2,0.5S51,13.5,50.6,13.2z"/>
</g>
</svg>
